<?xml version="1.0" encoding="UTF-8" standalone="no"?>
<svg
   xmlns:dc="http://purl.org/dc/elements/1.1/"
   xmlns:cc="http://creativecommons.org/ns#"
   xmlns:rdf="http://www.w3.org/1999/02/22-rdf-syntax-ns#"
   xmlns:svg="http://www.w3.org/2000/svg"
   xmlns="http://www.w3.org/2000/svg"
   xmlns:sodipodi="http://sodipodi.sourceforge.net/DTD/sodipodi-0.dtd"
   xmlns:inkscape="http://www.inkscape.org/namespaces/inkscape"
   viewBox="0 0 707.96002 666.65332"
   height="500"
   width="500"
   xml:space="preserve"
   id="svg2"
   version="1.1"
   inkscape:version="0.91 r13725"
   sodipodi:docname="GitHub-Mark.svg"><sodipodi:namedview
     pagecolor="#ffffff"
     bordercolor="#666666"
     borderopacity="1"
     objecttolerance="10"
     gridtolerance="10"
     guidetolerance="10"
     inkscape:pageopacity="0"
     inkscape:pageshadow="2"
     inkscape:window-width="1920"
     inkscape:window-height="1017"
     id="namedview3342"
     showgrid="false"
     inkscape:zoom="1.696"
     inkscape:cx="250"
     inkscape:cy="250"
     inkscape:window-x="-8"
     inkscape:window-y="-8"
     inkscape:window-maximized="1"
     inkscape:current-layer="svg2" /><metadata
     id="metadata8"><rdf:RDF><cc:Work
         rdf:about=""><dc:format>image/svg+xml</dc:format><dc:type
           rdf:resource="http://purl.org/dc/dcmitype/StillImage" /></cc:Work></rdf:RDF></metadata><defs
     id="defs6" /><g
     transform="matrix(5.8618096,0,0,-6.0102164,-1701.2202,1286.8933)"
     id="g10"
     style="fill:#ffffff"><g
       transform="scale(0.1,0.1)"
       id="g12"
       style="fill:#ffffff"><path
   id="path108"
   style="fill:#ffffff;fill-opacity:1;fill-rule:evenodd;stroke:none"
   d="m 3506.09,2175.54 c -333.47,0 -603.88,-270.35 -603.88,-603.87 0,-266.81 173.03,-493.17 412.97,-573.022 30.18,-5.589 41.26,13.102 41.26,29.052 0,14.4 -0.56,61.97 -0.82,112.43 -168,-36.53 -203.45,71.25 -203.45,71.25 -27.47,69.8 -67.05,88.36 -67.05,88.36 -54.79,37.48 4.13,36.71 4.13,36.71 60.64,-4.25 92.57,-62.23 92.57,-62.23 53.86,-92.32 141.27,-65.63 175.73,-50.2 5.42,39.02 21.07,65.68 38.34,80.75 -134.13,15.27 -275.13,67.05 -275.13,298.44 0,65.93 23.59,119.8 62.22,162.09 -6.27,15.22 -26.94,76.63 5.85,159.81 0,0 50.71,16.23 166.11,-61.9 48.17,13.38 99.83,20.09 151.15,20.32 51.32,-0.23 103.02,-6.94 151.28,-20.32 115.26,78.13 165.9,61.9 165.9,61.9 32.87,-83.18 12.19,-144.59 5.92,-159.81 38.72,-42.29 62.15,-96.16 62.15,-162.09 0,-231.94 -141.27,-283.01 -275.74,-297.96 21.66,-18.74 40.96,-55.49 40.96,-111.83 0,-80.79 -0.7,-145.82 -0.7,-165.72 0,-16.07 10.87,-34.899 41.48,-28.97 239.81,79.94 412.62,306.22 412.62,572.94 0,333.52 -270.37,603.87 -603.87,603.87"
   inkscape:connector-curvature="0" />
         id=&quot;path110&quot;
         </g></g></svg>